<svg id="svg" version="1.1" xmlns="http://www.w3.org/2000/svg" xmlns:xlink="http://www.w3.org/1999/xlink" width="400" height="400" viewBox="0, 0, 400,400"><g id="svgg"><path id="path0" d="M349.620 9.252 C 351.530 14.276,350.200 34.212,347.221 45.200 C 346.744 46.960,346.216 48.940,346.048 49.600 C 344.353 56.248,336.160 71.496,330.406 78.712 C 324.082 86.642,316.804 93.922,307.121 102.004 C 302.143 106.158,281.960 117.600,279.608 117.600 C 279.374 117.600,277.656 118.288,275.791 119.129 C 273.926 119.970,270.240 121.419,267.600 122.349 C 264.960 123.280,262.080 124.366,261.200 124.762 C 260.320 125.159,256.704 126.566,253.165 127.888 C 214.390 142.377,188.602 171.600,176.824 214.400 C 176.279 216.380,175.511 218.827,175.117 219.838 C 174.014 222.666,174.141 222.687,178.200 220.339 C 190.630 213.148,206.438 205.714,225.113 198.276 C 229.561 196.505,234.640 194.410,236.400 193.622 C 238.160 192.833,242.300 191.024,245.600 189.601 C 263.419 181.919,276.629 174.092,293.681 161.113 C 304.445 152.921,323.281 131.564,331.000 118.800 C 332.596 116.160,334.284 113.743,334.751 113.429 C 335.218 113.115,335.614 112.575,335.631 112.229 C 335.647 111.883,336.296 110.520,337.072 109.200 L 338.483 106.800 337.983 109.172 C 337.525 111.344,336.544 113.765,332.945 121.600 C 331.155 125.497,325.493 135.515,324.806 136.000 C 324.494 136.220,323.767 137.300,323.189 138.400 C 319.629 145.176,303.787 161.450,292.236 170.195 C 284.704 175.897,276.327 181.595,275.444 181.615 C 275.090 181.623,273.217 182.702,271.281 184.014 C 265.751 187.761,248.040 196.183,233.600 201.932 C 226.340 204.823,219.775 207.550,219.011 207.994 C 218.247 208.437,217.266 208.800,216.831 208.800 C 216.396 208.800,213.682 209.880,210.800 211.200 C 207.918 212.520,205.283 213.600,204.944 213.600 C 197.788 213.600,164.658 236.883,154.323 249.174 C 116.501 294.159,125.816 355.281,174.000 378.294 C 177.080 379.765,180.225 381.290,180.989 381.684 C 181.753 382.078,183.043 382.400,183.856 382.400 C 184.668 382.400,185.598 382.664,185.921 382.988 C 186.751 383.818,195.058 385.495,198.400 385.507 L 201.200 385.518 198.000 384.271 C 173.592 374.767,160.401 361.978,150.277 338.000 C 145.127 325.804,145.055 305.108,150.119 292.800 C 160.629 267.254,180.019 255.367,221.200 249.222 C 225.600 248.565,231.720 247.652,234.800 247.193 C 262.940 242.996,278.838 238.485,297.600 229.372 C 333.713 211.833,358.019 182.612,369.940 142.400 C 380.273 107.547,378.420 62.880,365.429 33.600 C 361.967 25.799,361.147 24.190,357.680 18.400 C 352.065 9.021,347.609 3.964,349.620 9.252 M267.239 18.683 C 266.752 20.158,266.196 22.228,266.003 23.283 C 265.811 24.337,265.060 27.759,264.334 30.887 L 263.014 36.574 255.707 37.207 C 251.688 37.556,246.845 37.931,244.945 38.042 C 239.609 38.353,239.924 40.091,246.081 44.303 C 247.445 45.236,250.628 47.422,253.153 49.161 L 257.744 52.322 257.191 56.761 C 256.887 59.202,256.357 61.740,256.014 62.400 C 255.671 63.060,255.182 65.345,254.928 67.478 C 254.674 69.611,254.082 71.819,253.613 72.385 C 252.984 73.143,253.107 73.546,254.080 73.920 C 255.284 74.382,269.427 64.622,270.820 62.367 C 271.306 61.582,277.980 64.953,286.223 70.148 C 290.875 73.080,292.184 72.486,290.554 68.186 C 290.098 66.984,288.739 62.802,287.535 58.894 L 285.344 51.787 293.033 44.259 C 302.761 34.734,302.736 34.674,289.265 35.068 C 278.595 35.380,278.563 35.375,277.981 33.490 C 276.546 28.847,270.049 16.000,269.136 16.000 C 268.579 16.000,267.726 17.207,267.239 18.683 M175.631 44.750 C 174.972 45.816,173.644 57.251,173.627 62.000 C 173.598 70.454,173.543 70.533,166.400 72.323 C 146.066 77.419,145.250 78.002,153.360 81.651 C 161.015 85.096,165.254 86.938,168.000 88.013 C 172.044 89.596,172.054 89.639,171.497 103.000 C 170.863 118.222,170.880 118.227,181.236 106.400 C 189.323 97.163,190.229 96.643,194.440 98.821 C 195.738 99.492,196.800 99.869,196.800 99.658 C 196.800 99.447,200.807 100.698,205.705 102.437 C 218.244 106.891,218.102 107.048,211.400 96.176 C 208.870 92.072,205.803 87.084,204.585 85.092 L 202.370 81.469 204.964 78.134 C 206.391 76.300,207.750 74.620,207.984 74.400 C 210.716 71.832,218.264 60.577,217.897 59.619 C 217.316 58.105,218.594 57.935,206.622 61.116 C 201.000 62.610,195.435 64.051,194.255 64.318 C 192.243 64.773,191.675 64.157,185.110 54.401 C 178.576 44.694,176.790 42.875,175.631 44.750 M268.456 77.800 C 264.365 91.705,257.958 106.503,252.753 114.069 C 249.538 118.740,249.568 121.877,252.818 121.027 C 257.311 119.852,274.318 82.709,272.514 78.009 C 271.955 76.552,268.870 76.393,268.456 77.800 M153.301 134.816 C 144.217 143.596,142.518 146.406,146.298 146.399 C 148.119 146.395,165.711 128.767,165.417 127.240 C 164.887 124.487,162.341 126.079,153.301 134.816 M76.824 141.171 C 76.125 142.013,76.010 144.250,76.416 149.123 C 77.448 161.509,77.200 175.946,75.935 177.178 C 75.311 177.786,68.230 181.588,60.200 185.627 C 52.170 189.666,45.600 193.248,45.600 193.587 C 45.600 195.191,48.221 195.983,71.933 201.544 C 80.260 203.497,80.738 203.974,81.698 211.290 C 82.124 214.540,82.830 219.720,83.266 222.800 C 83.702 225.880,84.324 230.380,84.648 232.800 C 85.317 237.798,85.982 239.200,87.686 239.200 C 88.980 239.200,92.734 235.328,92.775 233.951 C 92.789 233.484,93.446 232.404,94.236 231.551 C 95.026 230.698,97.966 226.400,100.769 222.000 C 108.621 209.677,106.120 210.581,124.000 213.600 C 150.253 218.033,149.793 219.404,130.250 194.994 C 122.920 185.839,122.969 186.155,127.582 177.511 C 137.274 159.355,139.461 154.478,138.455 153.267 C 137.441 152.044,137.269 152.080,130.800 154.854 C 129.480 155.420,125.880 156.836,122.800 158.000 C 119.720 159.165,114.860 161.032,112.000 162.151 C 109.140 163.269,106.080 164.345,105.200 164.541 C 103.979 164.813,100.699 161.952,91.338 152.449 C 78.466 139.381,78.371 139.307,76.824 141.171 M93.562 246.846 C 91.010 249.921,92.044 268.872,95.287 278.482 C 96.119 280.947,96.800 283.323,96.800 283.762 C 96.800 289.187,117.916 317.627,121.146 316.552 C 123.308 315.832,122.235 313.227,117.844 308.533 C 104.026 293.762,97.884 278.827,96.923 257.664 C 96.397 246.059,95.803 244.146,93.562 246.846 M252.107 269.400 C 251.695 270.170,251.276 271.160,251.177 271.600 C 250.900 272.825,250.342 274.529,249.213 277.600 L 248.182 280.400 241.291 280.631 C 233.356 280.897,232.659 281.722,237.400 285.230 C 245.143 290.959,245.391 291.695,241.889 298.523 C 238.894 304.363,240.769 305.167,247.200 300.800 C 252.972 296.880,252.255 296.854,258.227 301.200 C 265.427 306.439,265.621 306.330,263.200 298.400 C 260.996 291.183,260.981 291.230,266.841 286.980 C 273.168 282.392,273.038 281.994,265.129 281.737 C 257.324 281.483,257.506 281.645,255.545 273.200 C 254.506 268.727,253.225 267.311,252.107 269.400 M65.568 303.800 C 65.550 304.130,62.348 307.804,58.452 311.964 L 51.369 319.528 43.084 316.881 C 38.528 315.426,34.124 313.880,33.299 313.447 C 28.829 311.103,29.630 314.652,35.662 323.919 C 39.344 329.576,41.341 333.373,40.920 333.919 C 40.547 334.404,37.667 337.995,34.521 341.899 C 26.585 351.747,26.806 352.303,37.600 349.621 C 45.443 347.673,46.863 347.304,48.496 346.796 C 49.931 346.349,50.942 347.297,55.045 352.934 C 62.329 362.942,62.839 363.517,63.864 362.884 C 64.379 362.566,64.827 360.437,64.861 358.153 C 64.894 355.869,65.352 351.328,65.877 348.063 L 66.832 342.126 72.016 340.341 C 74.867 339.359,79.270 337.931,81.800 337.168 C 88.788 335.061,87.901 334.210,71.600 327.388 L 67.600 325.714 67.473 315.057 C 67.322 302.390,67.396 303.200,66.400 303.200 C 65.960 303.200,65.585 303.470,65.568 303.800 M246.046 331.768 C 245.779 332.464,245.800 336.213,246.093 340.097 L 246.627 347.160 243.113 348.624 C 241.181 349.430,237.980 350.582,236.000 351.184 C 230.687 352.799,229.694 355.050,234.014 355.684 C 235.928 355.965,244.262 358.460,245.600 359.153 C 246.371 359.552,246.869 361.173,246.993 363.687 C 247.099 365.839,247.279 369.370,247.393 371.534 C 247.651 376.439,248.607 376.790,251.338 372.982 C 252.513 371.342,254.038 369.280,254.726 368.400 C 255.415 367.520,256.613 365.973,257.389 364.962 C 258.932 362.952,258.071 362.868,271.804 366.369 C 275.971 367.432,275.693 365.978,270.424 359.168 L 265.507 352.812 268.526 348.206 C 270.186 345.673,271.773 343.420,272.053 343.200 C 273.116 342.363,274.455 339.136,274.026 338.442 C 273.527 337.635,271.790 338.073,263.769 341.025 C 259.358 342.649,258.156 342.830,257.369 341.992 C 256.836 341.425,254.600 338.789,252.400 336.136 C 247.919 330.731,246.752 329.928,246.046 331.768 M197.673 348.312 C 196.390 349.858,197.922 352.956,199.850 352.715 C 200.593 352.622,202.100 352.785,203.200 353.078 C 204.300 353.370,206.100 353.761,207.200 353.945 C 208.300 354.130,209.200 354.338,209.200 354.407 C 209.200 354.753,213.530 355.279,215.973 355.230 C 222.399 355.100,220.088 350.822,213.200 350.095 C 208.487 349.597,201.728 348.342,199.928 347.630 C 199.228 347.353,198.214 347.660,197.673 348.312 M129.474 354.751 C 117.347 359.785,92.292 361.553,79.408 358.284 C 75.203 357.218,74.272 357.190,73.510 358.109 C 69.623 362.792,97.629 366.582,113.654 363.542 C 125.423 361.310,136.302 356.952,135.856 354.650 C 135.472 352.674,134.437 352.690,129.474 354.751 " stroke="none" fill="#8f57ff" fill-rule="evenodd"></path></g></svg>